<svg width="14" height="15" viewBox="0 0 14 15" fill="none" xmlns="http://www.w3.org/2000/svg">
<g id="&#240;&#159;&#166;&#134; icon &#34;edit 2&#34;">
<g id="Group">
<path id="Vector" d="M2.91472 12.2C2.52896 12.2 2.16849 12.0671 1.90921 11.8205C1.58036 11.5106 1.42226 11.0426 1.47918 10.5367L1.71317 8.48772C1.75743 8.10196 1.99142 7.58972 2.26335 7.31146L7.45535 1.81594C8.75177 0.443637 10.1051 0.405693 11.4774 1.70211C12.8497 2.99853 12.8877 4.35186 11.5912 5.72417L6.39925 11.2197C6.13364 11.5043 5.64036 11.7699 5.2546 11.8332L3.21827 12.1809C3.11077 12.1873 3.01591 12.2 2.91472 12.2ZM9.48536 1.69579C8.99841 1.69579 8.5747 1.99934 8.14467 2.45467L2.95267 7.95657C2.82619 8.08937 2.68074 8.40557 2.65544 8.58897L2.42145 10.6379C2.39616 10.8466 2.44675 11.0173 2.56058 11.1248C2.67441 11.2323 2.84516 11.2703 3.05385 11.2387L5.09018 10.8909C5.27357 10.8593 5.57712 10.6948 5.7036 10.562L10.8956 5.06647C11.6798 4.23171 11.9644 3.46018 10.8197 2.3851C10.3138 1.89816 9.87744 1.69579 9.48536 1.69579Z" fill="#7B7B7B"/>
<path id="Vector_2" d="M10.3775 6.78011C10.3648 6.78011 10.3458 6.78011 10.3332 6.78011C8.3601 6.58407 6.77278 5.08531 6.46923 3.12488C6.43128 2.86559 6.60836 2.62528 6.86764 2.58101C7.12692 2.54307 7.36723 2.72014 7.4115 2.97943C7.65181 4.50983 8.89132 5.68609 10.4344 5.83787C10.6937 5.86317 10.8834 6.09715 10.8581 6.35641C10.8265 6.59672 10.6178 6.78011 10.3775 6.78011Z" fill="#7B7B7B"/>
<path id="Vector_3" d="M12.6917 14.2426H1.30853C1.04924 14.2426 0.834229 14.0275 0.834229 13.7683C0.834229 13.509 1.04924 13.294 1.30853 13.294H12.6917C12.951 13.294 13.166 13.509 13.166 13.7683C13.166 14.0275 12.951 14.2426 12.6917 14.2426Z" fill="#7B7B7B"/>
</g>
</g>
</svg>
