<svg width="28" height="28" viewBox="0 0 28 28" fill="none" xmlns="http://www.w3.org/2000/svg">
<path d="M17.75 6.35L16.5 11.5L23.7875 11.5C24.1756 11.5 24.5584 11.5904 24.9055 11.7639C25.2527 11.9375 25.5546 12.1895 25.7875 12.5C26.0204 12.8105 26.1778 13.1709 26.2472 13.5528C26.3166 13.9346 26.2962 14.3274 26.1875 14.7L23.275 24.7C23.1235 25.2193 22.8077 25.6754 22.375 26C21.9423 26.3246 21.4159 26.5 20.875 26.5L4.00001 26.5C3.33697 26.5 2.70108 26.2366 2.23224 25.7678C1.7634 25.2989 1.50001 24.663 1.50001 24L1.50001 14C1.50001 13.337 1.7634 12.7011 2.23224 12.2322C2.70108 11.7634 3.33697 11.5 4.00001 11.5L7.45001 11.5C7.91511 11.4998 8.37093 11.3698 8.7662 11.1247C9.16148 10.8795 9.48053 10.529 9.68751 10.1125L14 1.5C14.5895 1.5073 15.1697 1.64771 15.6973 1.91074C16.2248 2.17378 16.6862 2.55263 17.0468 3.019C17.4074 3.48537 17.6579 4.0272 17.7797 4.604C17.9015 5.1808 17.8913 5.77767 17.75 6.35Z" stroke="#459F48" stroke-width="2" stroke-linecap="round" stroke-linejoin="round"/>
</svg>
