<svg width="12" height="15" viewBox="0 0 12 15" fill="none" xmlns="http://www.w3.org/2000/svg">
<g id="&#240;&#159;&#166;&#134; icon &#34;trash&#34;">
<g id="Group">
<path id="Vector" d="M11.5423 4.25641C11.53 4.25641 11.5116 4.25641 11.4931 4.25641C8.23726 3.93021 4.98756 3.80712 1.76861 4.13332L0.513045 4.25641C0.254546 4.28103 0.0268209 4.09639 0.00220197 3.83789C-0.022417 3.57939 0.162225 3.35782 0.414569 3.3332L1.67014 3.21011C4.94447 2.87775 8.26187 3.007 11.5854 3.3332C11.8378 3.35782 12.0224 3.58555 11.9978 3.83789C11.9793 4.07793 11.7762 4.25641 11.5423 4.25641Z" fill="#FF4F4F"/>
<path id="Vector_2" d="M3.84976 3.6348C3.82514 3.6348 3.80052 3.6348 3.76975 3.62865C3.52356 3.58557 3.35122 3.34553 3.39431 3.09934L3.52971 2.29307C3.62819 1.70222 3.76359 0.883636 5.19762 0.883636H6.81016C8.25037 0.883636 8.38577 1.73299 8.47809 2.29923L8.6135 3.09934C8.65658 3.35169 8.48425 3.59172 8.23806 3.62865C7.98571 3.67173 7.74568 3.4994 7.70875 3.25321L7.57335 2.45309C7.48718 1.91763 7.46872 1.813 6.81631 1.813H5.20377C4.5514 1.813 4.53909 1.89917 4.44677 2.44694L4.30521 3.24706C4.26828 3.47478 4.07133 3.6348 3.84976 3.6348Z" fill="#FF4F4F"/>
<path id="Vector_3" d="M7.97918 14.1164H4.02784C1.87983 14.1164 1.79367 12.9285 1.72596 11.9684L1.32591 5.77052C1.30744 5.51818 1.50439 5.29662 1.75674 5.27815C2.01524 5.26584 2.23065 5.45664 2.24912 5.70898L2.64917 11.9068C2.71688 12.8423 2.7415 13.1932 4.02784 13.1932H7.97918C9.27168 13.1932 9.29629 12.8423 9.35784 11.9068L9.7579 5.70898C9.77636 5.45664 9.99793 5.26584 10.2503 5.27815C10.5026 5.29662 10.6996 5.51202 10.6811 5.77052L10.2811 11.9684C10.2133 12.9285 10.1272 14.1164 7.97918 14.1164Z" fill="#FF4F4F"/>
<path id="Vector_4" d="M7.02482 10.7312H4.97529C4.72293 10.7312 4.51367 10.5219 4.51367 10.2696C4.51367 10.0173 4.72293 9.808 4.97529 9.808H7.02482C7.27716 9.808 7.48642 10.0173 7.48642 10.2696C7.48642 10.5219 7.27716 10.7312 7.02482 10.7312Z" fill="#FF4F4F"/>
<path id="Vector_5" d="M7.5419 8.26931H4.46453C4.21219 8.26931 4.00293 8.06005 4.00293 7.8077C4.00293 7.55536 4.21219 7.3461 4.46453 7.3461H7.5419C7.79425 7.3461 8.00351 7.55536 8.00351 7.8077C8.00351 8.06005 7.79425 8.26931 7.5419 8.26931Z" fill="#FF4F4F"/>
</g>
</g>
</svg>
